solid STL
  facet normal  0.000000e+000  0.000000e+000  1.000000e+000
    outer loop
      vertex -1.370000e+001 -1.400000e+001  2.370000e+001
      vertex -2.420000e+001 -7.000000e+000  2.370000e+001
      vertex -2.392000e+001 -1.400000e+001  2.370000e+001
    endloop
  endfacet
  facet normal  0.000000e+000  0.000000e+000  1.000000e+000
    outer loop
      vertex -1.370000e+001 -1.400000e+001  2.370000e+001
      vertex -3.480000e+000 -1.400000e+001  2.370000e+001
      vertex -2.420000e+001 -7.000000e+000  2.370000e+001
    endloop
  endfacet
  facet normal  0.000000e+000  0.000000e+000  1.000000e+000
    outer loop
      vertex -3.792000e+001 -7.000000e+000  2.370000e+001
      vertex -4.492000e+001 -1.776357e-015  2.370000e+001
      vertex -4.492000e+001 -7.000000e+000  2.370000e+001
    endloop
  endfacet
  facet normal  0.000000e+000  -0.000000e+000  1.000000e+000
    outer loop
      vertex -3.022000e+001  2.030000e+001  2.370000e+001
      vertex -1.692000e+001  2.030000e+001  2.370000e+001
      vertex -1.692000e+001  2.730000e+001  2.370000e+001
    endloop
  endfacet
  facet normal  0.000000e+000  0.000000e+000  1.000000e+000
    outer loop
      vertex -3.022000e+001  2.030000e+001  2.370000e+001
      vertex -1.692000e+001  2.730000e+001  2.370000e+001
      vertex -3.092000e+001  2.730000e+001  2.370000e+001
    endloop
  endfacet
  facet normal  0.000000e+000  0.000000e+000  1.000000e+000
    outer loop
      vertex -3.022000e+001  2.030000e+001  2.370000e+001
      vertex -3.092000e+001  2.730000e+001  2.370000e+001
      vertex -3.092000e+001  2.100000e+001  2.370000e+001
    endloop
  endfacet
  facet normal  0.000000e+000  0.000000e+000  1.000000e+000
    outer loop
      vertex -3.022000e+001  2.030000e+001  2.370000e+001
      vertex -3.092000e+001  2.100000e+001  2.370000e+001
      vertex -3.792000e+001  2.100000e+001  2.370000e+001
    endloop
  endfacet
  facet normal  0.000000e+000  0.000000e+000  9.999999e-001
    outer loop
      vertex -3.022000e+001  2.030000e+001  2.370000e+001
      vertex -3.792000e+001  2.100000e+001  2.370000e+001
      vertex -3.792000e+001  7.000000e+000  2.370000e+001
    endloop
  endfacet
  facet normal  0.000000e+000  0.000000e+000  9.999999e-001
    outer loop
      vertex -3.022000e+001  2.030000e+001  2.370000e+001
      vertex -3.792000e+001  7.000000e+000  2.370000e+001
      vertex -3.022000e+001  1.400000e+001  2.370000e+001
    endloop
  endfacet
  facet normal  -0.000000e+000  0.000000e+000  1.000000e+000
    outer loop
      vertex -1.370000e+001  1.400000e+001  2.370000e+001
      vertex -3.022000e+001  1.400000e+001  2.370000e+001
      vertex -3.120000e+001 -1.776357e-015  2.370000e+001
    endloop
  endfacet
  facet normal  0.000000e+000  0.000000e+000  1.000000e+000
    outer loop
      vertex -1.370000e+001  1.400000e+001  2.370000e+001
      vertex -3.120000e+001 -1.776357e-015  2.370000e+001
      vertex -2.420000e+001  0.000000e+000  2.370000e+001
    endloop
  endfacet
  facet normal  -0.000000e+000  0.000000e+000  1.000000e+000
    outer loop
      vertex -1.370000e+001  1.400000e+001  2.370000e+001
      vertex -2.420000e+001  0.000000e+000  2.370000e+001
      vertex -3.200000e+000 -1.776357e-015  2.370000e+001
    endloop
  endfacet
  facet normal  0.000000e+000  -0.000000e+000  1.000000e+000
    outer loop
      vertex -1.370000e+001  1.400000e+001  2.370000e+001
      vertex -3.200000e+000 -1.776357e-015  2.370000e+001
      vertex  2.820000e+000  1.400000e+001  2.370000e+001
    endloop
  endfacet
  facet normal  0.000000e+000  0.000000e+000  1.000000e+000
    outer loop
      vertex  1.752000e+001  0.000000e+000  2.370000e+001
      vertex  2.452000e+001 -1.776357e-015  2.370000e+001
      vertex  1.052000e+001  7.000000e+000  2.370000e+001
    endloop
  endfacet
  facet normal  0.000000e+000  0.000000e+000  1.000000e+000
    outer loop
      vertex  1.752000e+001  0.000000e+000  2.370000e+001
      vertex  1.052000e+001  7.000000e+000  2.370000e+001
      vertex  3.800000e+000  0.000000e+000  2.370000e+001
    endloop
  endfacet
  facet normal  -0.000000e+000  0.000000e+000  1.000000e+000
    outer loop
      vertex  1.752000e+001  0.000000e+000  2.370000e+001
      vertex  3.800000e+000  0.000000e+000  2.370000e+001
      vertex  3.800000e+000 -7.000000e+000  2.370000e+001
    endloop
  endfacet
  facet normal  0.000000e+000  0.000000e+000  1.000000e+000
    outer loop
      vertex  1.752000e+001  0.000000e+000  2.370000e+001
      vertex  3.800000e+000 -7.000000e+000  2.370000e+001
      vertex  1.052000e+001 -7.000000e+000  2.370000e+001
    endloop
  endfacet
  facet normal  0.000000e+000  0.000000e+000  1.000000e+000
    outer loop
      vertex  1.752000e+001  0.000000e+000  2.370000e+001
      vertex  1.052000e+001 -7.000000e+000  2.370000e+001
      vertex  1.752000e+001 -7.000000e+000  2.370000e+001
    endloop
  endfacet
  facet normal  -0.000000e+000  0.000000e+000  1.000000e+000
    outer loop
      vertex -3.792000e+001  7.000000e+000  2.370000e+001
      vertex -5.192000e+001  0.000000e+000  2.370000e+001
      vertex -4.492000e+001 -1.776357e-015  2.370000e+001
    endloop
  endfacet
  facet normal  0.000000e+000  0.000000e+000  1.000000e+000
    outer loop
      vertex -3.792000e+001  7.000000e+000  2.370000e+001
      vertex -4.492000e+001 -1.776357e-015  2.370000e+001
      vertex -3.120000e+001 -1.776357e-015  2.370000e+001
    endloop
  endfacet
  facet normal  0.000000e+000  -0.000000e+000  9.999999e-001
    outer loop
      vertex -3.792000e+001  7.000000e+000  2.370000e+001
      vertex -3.120000e+001 -1.776357e-015  2.370000e+001
      vertex -3.022000e+001  1.400000e+001  2.370000e+001
    endloop
  endfacet
  facet normal  0.000000e+000  0.000000e+000  1.000000e+000
    outer loop
      vertex -5.192000e+001  0.000000e+000  2.370000e+001
      vertex -3.792000e+001  7.000000e+000  2.370000e+001
      vertex -4.492000e+001  7.000000e+000  2.370000e+001
    endloop
  endfacet
  facet normal  0.000000e+000  -0.000000e+000  1.000000e+000
    outer loop
      vertex -5.192000e+001  0.000000e+000  2.370000e+001
      vertex -4.492000e+001  7.000000e+000  2.370000e+001
      vertex -4.492000e+001  2.100000e+001  2.370000e+001
    endloop
  endfacet
  facet normal  0.000000e+000  0.000000e+000  1.000000e+000
    outer loop
      vertex -5.192000e+001  0.000000e+000  2.370000e+001
      vertex -4.492000e+001  2.100000e+001  2.370000e+001
      vertex -5.192000e+001  2.100000e+001  2.370000e+001
    endloop
  endfacet
  facet normal  -0.000000e+000  0.000000e+000  1.000000e+000
    outer loop
      vertex -3.120000e+001 -1.776357e-015  2.370000e+001
      vertex -4.492000e+001 -1.776357e-015  2.370000e+001
      vertex -3.120000e+001 -7.000000e+000  2.370000e+001
    endloop
  endfacet
  facet normal  0.000000e+000  0.000000e+000  1.000000e+000
    outer loop
      vertex -3.120000e+001 -7.000000e+000  2.370000e+001
      vertex -4.492000e+001 -1.776357e-015  2.370000e+001
      vertex -3.792000e+001 -7.000000e+000  2.370000e+001
    endloop
  endfacet
  facet normal  -0.000000e+000  0.000000e+000  1.000000e+000
    outer loop
      vertex -3.120000e+001 -7.000000e+000  2.370000e+001
      vertex -3.792000e+001 -7.000000e+000  2.370000e+001
      vertex -3.162000e+001 -1.400000e+001  2.370000e+001
    endloop
  endfacet
  facet normal  0.000000e+000  0.000000e+000  1.000000e+000
    outer loop
      vertex -3.162000e+001 -1.400000e+001  2.370000e+001
      vertex -3.792000e+001 -7.000000e+000  2.370000e+001
      vertex -3.792000e+001 -1.400000e+001  2.370000e+001
    endloop
  endfacet
  facet normal  0.000000e+000  -0.000000e+000  1.000000e+000
    outer loop
      vertex  3.800000e+000 -7.000000e+000  2.370000e+001
      vertex  4.220000e+000 -1.400000e+001  2.370000e+001
      vertex  1.052000e+001 -7.000000e+000  2.370000e+001
    endloop
  endfacet
  facet normal  0.000000e+000  0.000000e+000  1.000000e+000
    outer loop
      vertex  1.052000e+001 -7.000000e+000  2.370000e+001
      vertex  4.220000e+000 -1.400000e+001  2.370000e+001
      vertex  1.052000e+001 -1.400000e+001  2.370000e+001
    endloop
  endfacet
  facet normal  0.000000e+000  0.000000e+000  1.000000e+000
    outer loop
      vertex  4.220000e+000 -2.100000e+001  2.370000e+001
      vertex  4.220000e+000 -1.400000e+001  2.370000e+001
      vertex  3.520000e+000 -2.170000e+001  2.370000e+001
    endloop
  endfacet
  facet normal  0.000000e+000  0.000000e+000  1.000000e+000
    outer loop
      vertex  3.520000e+000 -2.170000e+001  2.370000e+001
      vertex  4.220000e+000 -1.400000e+001  2.370000e+001
      vertex  3.800000e+000 -7.000000e+000  2.370000e+001
    endloop
  endfacet
  facet normal  0.000000e+000  0.000000e+000  1.000000e+000
    outer loop
      vertex  3.520000e+000 -2.170000e+001  2.370000e+001
      vertex  3.800000e+000 -7.000000e+000  2.370000e+001
      vertex -3.480000e+000 -2.170000e+001  2.370000e+001
    endloop
  endfacet
  facet normal  0.000000e+000  0.000000e+000  1.000000e+000
    outer loop
      vertex -3.480000e+000 -2.170000e+001  2.370000e+001
      vertex  3.800000e+000 -7.000000e+000  2.370000e+001
      vertex -3.200000e+000 -7.000000e+000  2.370000e+001
    endloop
  endfacet
  facet normal  0.000000e+000  0.000000e+000  1.000000e+000
    outer loop
      vertex -3.480000e+000 -2.170000e+001  2.370000e+001
      vertex -3.200000e+000 -7.000000e+000  2.370000e+001
      vertex -3.480000e+000 -1.400000e+001  2.370000e+001
    endloop
  endfacet
  facet normal  0.000000e+000  0.000000e+000  1.000000e+000
    outer loop
      vertex -3.200000e+000 -1.776357e-015  2.370000e+001
      vertex  3.800000e+000  0.000000e+000  2.370000e+001
      vertex  2.820000e+000  1.400000e+001  2.370000e+001
    endloop
  endfacet
  facet normal  0.000000e+000  0.000000e+000  9.999999e-001
    outer loop
      vertex  2.820000e+000  1.400000e+001  2.370000e+001
      vertex  3.800000e+000  0.000000e+000  2.370000e+001
      vertex  1.052000e+001  7.000000e+000  2.370000e+001
    endloop
  endfacet
  facet normal  0.000000e+000  0.000000e+000  1.000000e+000
    outer loop
      vertex  2.820000e+000  1.400000e+001  2.370000e+001
      vertex  1.052000e+001  7.000000e+000  2.370000e+001
      vertex  2.820000e+000  2.030000e+001  2.370000e+001
    endloop
  endfacet
  facet normal  -0.000000e+000  0.000000e+000  9.999999e-001
    outer loop
      vertex  2.820000e+000  2.030000e+001  2.370000e+001
      vertex  1.052000e+001  7.000000e+000  2.370000e+001
      vertex  1.052000e+001  2.100000e+001  2.370000e+001
    endloop
  endfacet
  facet normal  0.000000e+000  0.000000e+000  1.000000e+000
    outer loop
      vertex  2.820000e+000  2.030000e+001  2.370000e+001
      vertex  1.052000e+001  2.100000e+001  2.370000e+001
      vertex  3.520000e+000  2.100000e+001  2.370000e+001
    endloop
  endfacet
  facet normal  0.000000e+000  0.000000e+000  1.000000e+000
    outer loop
      vertex  3.520000e+000  2.100000e+001  2.370000e+001
      vertex  3.520000e+000  2.730000e+001  2.370000e+001
      vertex  2.820000e+000  2.030000e+001  2.370000e+001
    endloop
  endfacet
  facet normal  0.000000e+000  -0.000000e+000  1.000000e+000
    outer loop
      vertex  2.820000e+000  2.030000e+001  2.370000e+001
      vertex  3.520000e+000  2.730000e+001  2.370000e+001
      vertex -1.048000e+001  2.730000e+001  2.370000e+001
    endloop
  endfacet
  facet normal  0.000000e+000  0.000000e+000  1.000000e+000
    outer loop
      vertex  2.820000e+000  2.030000e+001  2.370000e+001
      vertex -1.048000e+001  2.730000e+001  2.370000e+001
      vertex -1.048000e+001  2.030000e+001  2.370000e+001
    endloop
  endfacet
  facet normal  0.000000e+000  0.000000e+000  9.999999e-001
    outer loop
      vertex -2.392000e+001 -2.170000e+001  2.370000e+001
      vertex -2.392000e+001 -1.400000e+001  2.370000e+001
      vertex -3.092000e+001 -2.170000e+001  2.370000e+001
    endloop
  endfacet
  facet normal  0.000000e+000  0.000000e+000  1.000000e+000
    outer loop
      vertex -3.092000e+001 -2.170000e+001  2.370000e+001
      vertex -2.392000e+001 -1.400000e+001  2.370000e+001
      vertex -2.420000e+001 -7.000000e+000  2.370000e+001
    endloop
  endfacet
  facet normal  0.000000e+000  0.000000e+000  1.000000e+000
    outer loop
      vertex -3.092000e+001 -2.170000e+001  2.370000e+001
      vertex -2.420000e+001 -7.000000e+000  2.370000e+001
      vertex -3.162000e+001 -2.100000e+001  2.370000e+001
    endloop
  endfacet
  facet normal  0.000000e+000  0.000000e+000  1.000000e+000
    outer loop
      vertex -3.162000e+001 -2.100000e+001  2.370000e+001
      vertex -2.420000e+001 -7.000000e+000  2.370000e+001
      vertex -3.120000e+001 -7.000000e+000  2.370000e+001
    endloop
  endfacet
  facet normal  0.000000e+000  0.000000e+000  1.000000e+000
    outer loop
      vertex -3.162000e+001 -2.100000e+001  2.370000e+001
      vertex -3.120000e+001 -7.000000e+000  2.370000e+001
      vertex -3.162000e+001 -1.400000e+001  2.370000e+001
    endloop
  endfacet
  facet normal  0.000000e+000  0.000000e+000  1.000000e+000
    outer loop
      vertex -3.200000e+000 -1.776357e-015  2.370000e+001
      vertex -2.420000e+001  0.000000e+000  2.370000e+001
      vertex -3.200000e+000 -7.000000e+000  2.370000e+001
    endloop
  endfacet
  facet normal  0.000000e+000  0.000000e+000  1.000000e+000
    outer loop
      vertex -3.200000e+000 -7.000000e+000  2.370000e+001
      vertex -2.420000e+001  0.000000e+000  2.370000e+001
      vertex -2.420000e+001 -7.000000e+000  2.370000e+001
    endloop
  endfacet
  facet normal  -0.000000e+000  0.000000e+000  1.000000e+000
    outer loop
      vertex -3.200000e+000 -7.000000e+000  2.370000e+001
      vertex -2.420000e+001 -7.000000e+000  2.370000e+001
      vertex -3.480000e+000 -1.400000e+001  2.370000e+001
    endloop
  endfacet
  facet normal  0.000000e+000  0.000000e+000  1.000000e+000
    outer loop
      vertex -3.792000e+001 -2.800000e+001  2.370000e+001
      vertex -3.092000e+001 -2.800000e+001  2.370000e+001
      vertex -3.792000e+001 -2.100000e+001  2.370000e+001
    endloop
  endfacet
  facet normal  0.000000e+000  0.000000e+000  1.000000e+000
    outer loop
      vertex -3.792000e+001 -2.100000e+001  2.370000e+001
      vertex -3.092000e+001 -2.800000e+001  2.370000e+001
      vertex -3.092000e+001 -2.170000e+001  2.370000e+001
    endloop
  endfacet
  facet normal  0.000000e+000  0.000000e+000  1.000000e+000
    outer loop
      vertex -3.792000e+001 -2.100000e+001  2.370000e+001
      vertex -3.092000e+001 -2.170000e+001  2.370000e+001
      vertex -3.162000e+001 -2.100000e+001  2.370000e+001
    endloop
  endfacet
  facet normal  -0.000000e+000  0.000000e+000  1.000000e+000
    outer loop
      vertex  2.452000e+001  2.100000e+001  2.370000e+001
      vertex  1.752000e+001  2.100000e+001  2.370000e+001
      vertex  2.452000e+001 -1.776357e-015  2.370000e+001
    endloop
  endfacet
  facet normal  0.000000e+000  0.000000e+000  1.000000e+000
    outer loop
      vertex  2.452000e+001 -1.776357e-015  2.370000e+001
      vertex  1.752000e+001  2.100000e+001  2.370000e+001
      vertex  1.752000e+001  7.000000e+000  2.370000e+001
    endloop
  endfacet
  facet normal  0.000000e+000  0.000000e+000  1.000000e+000
    outer loop
      vertex  2.452000e+001 -1.776357e-015  2.370000e+001
      vertex  1.752000e+001  7.000000e+000  2.370000e+001
      vertex  1.052000e+001  7.000000e+000  2.370000e+001
    endloop
  endfacet
  facet normal  0.000000e+000  0.000000e+000  1.000000e+000
    outer loop
      vertex  3.520000e+000 -2.800000e+001  2.370000e+001
      vertex  1.052000e+001 -2.800000e+001  2.370000e+001
      vertex  3.520000e+000 -2.170000e+001  2.370000e+001
    endloop
  endfacet
  facet normal  -0.000000e+000  0.000000e+000  9.999999e-001
    outer loop
      vertex  3.520000e+000 -2.170000e+001  2.370000e+001
      vertex  1.052000e+001 -2.800000e+001  2.370000e+001
      vertex  1.052000e+001 -2.100000e+001  2.370000e+001
    endloop
  endfacet
  facet normal  0.000000e+000  0.000000e+000  1.000000e+000
    outer loop
      vertex  3.520000e+000 -2.170000e+001  2.370000e+001
      vertex  1.052000e+001 -2.100000e+001  2.370000e+001
      vertex  4.220000e+000 -2.100000e+001  2.370000e+001
    endloop
  endfacet
  facet normal  0.000000e+000  1.000000e+000  0.000000e+000
    outer loop
      vertex -5.192000e+001  2.100000e+001  2.370000e+001
      vertex -4.492000e+001  2.100000e+001  2.370000e+001
      vertex -5.192000e+001  2.100000e+001  1.970000e+001
    endloop
  endfacet
  facet normal  0.000000e+000  1.000000e+000  0.000000e+000
    outer loop
      vertex -5.192000e+001  2.100000e+001  1.970000e+001
      vertex -4.492000e+001  2.100000e+001  2.370000e+001
      vertex -4.492000e+001  2.100000e+001  1.970000e+001
    endloop
  endfacet
  facet normal  1.000000e+000  -0.000000e+000  0.000000e+000
    outer loop
      vertex -4.492000e+001  2.100000e+001  2.370000e+001
      vertex -4.492000e+001  7.000000e+000  2.370000e+001
      vertex -4.492000e+001  2.100000e+001  1.970000e+001
    endloop
  endfacet
  facet normal  1.000000e+000  0.000000e+000  0.000000e+000
    outer loop
      vertex -4.492000e+001  2.100000e+001  1.970000e+001
      vertex -4.492000e+001  7.000000e+000  2.370000e+001
      vertex -4.492000e+001  7.000000e+000  1.970000e+001
    endloop
  endfacet
  facet normal  0.000000e+000  1.000000e+000  0.000000e+000
    outer loop
      vertex -4.492000e+001  7.000000e+000  2.370000e+001
      vertex -3.792000e+001  7.000000e+000  2.370000e+001
      vertex -4.492000e+001  7.000000e+000  1.970000e+001
    endloop
  endfacet
  facet normal  0.000000e+000  1.000000e+000  0.000000e+000
    outer loop
      vertex -4.492000e+001  7.000000e+000  1.970000e+001
      vertex -3.792000e+001  7.000000e+000  2.370000e+001
      vertex -3.792000e+001  7.000000e+000  1.970000e+001
    endloop
  endfacet
  facet normal -1.000000e+000  -0.000000e+000  0.000000e+000
    outer loop
      vertex -3.792000e+001  7.000000e+000  2.370000e+001
      vertex -3.792000e+001  2.100000e+001  2.370000e+001
      vertex -3.792000e+001  7.000000e+000  1.970000e+001
    endloop
  endfacet
  facet normal -1.000000e+000  0.000000e+000  0.000000e+000
    outer loop
      vertex -3.792000e+001  7.000000e+000  1.970000e+001
      vertex -3.792000e+001  2.100000e+001  2.370000e+001
      vertex -3.792000e+001  2.100000e+001  1.970000e+001
    endloop
  endfacet
  facet normal  0.000000e+000  1.000000e+000  0.000000e+000
    outer loop
      vertex -3.792000e+001  2.100000e+001  2.370000e+001
      vertex -3.092000e+001  2.100000e+001  2.370000e+001
      vertex -3.792000e+001  2.100000e+001  1.970000e+001
    endloop
  endfacet
  facet normal  0.000000e+000  1.000000e+000  0.000000e+000
    outer loop
      vertex -3.792000e+001  2.100000e+001  1.970000e+001
      vertex -3.092000e+001  2.100000e+001  2.370000e+001
      vertex -3.092000e+001  2.100000e+001  1.970000e+001
    endloop
  endfacet
  facet normal -1.000000e+000  -0.000000e+000  0.000000e+000
    outer loop
      vertex -3.092000e+001  2.100000e+001  2.370000e+001
      vertex -3.092000e+001  2.730000e+001  2.370000e+001
      vertex -3.092000e+001  2.100000e+001  1.970000e+001
    endloop
  endfacet
  facet normal -1.000000e+000  0.000000e+000  0.000000e+000
    outer loop
      vertex -3.092000e+001  2.100000e+001  1.970000e+001
      vertex -3.092000e+001  2.730000e+001  2.370000e+001
      vertex -3.092000e+001  2.730000e+001  1.970000e+001
    endloop
  endfacet
  facet normal  0.000000e+000  1.000000e+000  0.000000e+000
    outer loop
      vertex -3.092000e+001  2.730000e+001  2.370000e+001
      vertex -1.692000e+001  2.730000e+001  2.370000e+001
      vertex -3.092000e+001  2.730000e+001  1.970000e+001
    endloop
  endfacet
  facet normal  0.000000e+000  1.000000e+000  0.000000e+000
    outer loop
      vertex -3.092000e+001  2.730000e+001  1.970000e+001
      vertex -1.692000e+001  2.730000e+001  2.370000e+001
      vertex -1.692000e+001  2.730000e+001  1.970000e+001
    endloop
  endfacet
  facet normal  1.000000e+000  -0.000000e+000  0.000000e+000
    outer loop
      vertex -1.692000e+001  2.730000e+001  2.370000e+001
      vertex -1.692000e+001  2.030000e+001  2.370000e+001
      vertex -1.692000e+001  2.730000e+001  1.970000e+001
    endloop
  endfacet
  facet normal  1.000000e+000  0.000000e+000  0.000000e+000
    outer loop
      vertex -1.692000e+001  2.730000e+001  1.970000e+001
      vertex -1.692000e+001  2.030000e+001  2.370000e+001
      vertex -1.692000e+001  2.030000e+001  1.970000e+001
    endloop
  endfacet
  facet normal  0.000000e+000 -1.000000e+000  0.000000e+000
    outer loop
      vertex -1.692000e+001  2.030000e+001  2.370000e+001
      vertex -3.022000e+001  2.030000e+001  2.370000e+001
      vertex -1.692000e+001  2.030000e+001  1.970000e+001
    endloop
  endfacet
  facet normal  0.000000e+000 -1.000000e+000  0.000000e+000
    outer loop
      vertex -1.692000e+001  2.030000e+001  1.970000e+001
      vertex -3.022000e+001  2.030000e+001  2.370000e+001
      vertex -3.022000e+001  2.030000e+001  1.970000e+001
    endloop
  endfacet
  facet normal  1.000000e+000  -0.000000e+000  0.000000e+000
    outer loop
      vertex -3.022000e+001  2.030000e+001  2.370000e+001
      vertex -3.022000e+001  1.400000e+001  2.370000e+001
      vertex -3.022000e+001  2.030000e+001  1.970000e+001
    endloop
  endfacet
  facet normal  1.000000e+000  0.000000e+000  0.000000e+000
    outer loop
      vertex -3.022000e+001  2.030000e+001  1.970000e+001
      vertex -3.022000e+001  1.400000e+001  2.370000e+001
      vertex -3.022000e+001  1.400000e+001  1.970000e+001
    endloop
  endfacet
  facet normal  0.000000e+000  1.000000e+000  0.000000e+000
    outer loop
      vertex -3.022000e+001  1.400000e+001  2.370000e+001
      vertex -1.370000e+001  1.400000e+001  2.370000e+001
      vertex -3.022000e+001  1.400000e+001  1.970000e+001
    endloop
  endfacet
  facet normal  0.000000e+000  1.000000e+000  0.000000e+000
    outer loop
      vertex -3.022000e+001  1.400000e+001  1.970000e+001
      vertex -1.370000e+001  1.400000e+001  2.370000e+001
      vertex -1.370000e+001  1.400000e+001  1.970000e+001
    endloop
  endfacet
  facet normal  0.000000e+000  1.000000e+000  0.000000e+000
    outer loop
      vertex -1.370000e+001  1.400000e+001  2.370000e+001
      vertex  2.820000e+000  1.400000e+001  2.370000e+001
      vertex -1.370000e+001  1.400000e+001  1.970000e+001
    endloop
  endfacet
  facet normal  0.000000e+000  1.000000e+000  0.000000e+000
    outer loop
      vertex -1.370000e+001  1.400000e+001  1.970000e+001
      vertex  2.820000e+000  1.400000e+001  2.370000e+001
      vertex  2.820000e+000  1.400000e+001  1.970000e+001
    endloop
  endfacet
  facet normal -1.000000e+000  0.000000e+000  0.000000e+000
    outer loop
      vertex  2.820000e+000  2.030000e+001  2.370000e+001
      vertex  2.820000e+000  2.030000e+001  1.970000e+001
      vertex  2.820000e+000  1.400000e+001  2.370000e+001
    endloop
  endfacet
  facet normal -1.000000e+000  0.000000e+000  0.000000e+000
    outer loop
      vertex  2.820000e+000  1.400000e+001  2.370000e+001
      vertex  2.820000e+000  2.030000e+001  1.970000e+001
      vertex  2.820000e+000  1.400000e+001  1.970000e+001
    endloop
  endfacet
  facet normal  0.000000e+000 -1.000000e+000  0.000000e+000
    outer loop
      vertex  2.820000e+000  2.030000e+001  2.370000e+001
      vertex -1.048000e+001  2.030000e+001  2.370000e+001
      vertex  2.820000e+000  2.030000e+001  1.970000e+001
    endloop
  endfacet
  facet normal  0.000000e+000 -1.000000e+000  0.000000e+000
    outer loop
      vertex  2.820000e+000  2.030000e+001  1.970000e+001
      vertex -1.048000e+001  2.030000e+001  2.370000e+001
      vertex -1.048000e+001  2.030000e+001  1.970000e+001
    endloop
  endfacet
  facet normal -1.000000e+000  0.000000e+000  0.000000e+000
    outer loop
      vertex -1.048000e+001  2.730000e+001  2.370000e+001
      vertex -1.048000e+001  2.730000e+001  1.970000e+001
      vertex -1.048000e+001  2.030000e+001  2.370000e+001
    endloop
  endfacet
  facet normal -1.000000e+000  0.000000e+000  0.000000e+000
    outer loop
      vertex -1.048000e+001  2.030000e+001  2.370000e+001
      vertex -1.048000e+001  2.730000e+001  1.970000e+001
      vertex -1.048000e+001  2.030000e+001  1.970000e+001
    endloop
  endfacet
  facet normal  0.000000e+000  1.000000e+000  0.000000e+000
    outer loop
      vertex -1.048000e+001  2.730000e+001  2.370000e+001
      vertex  3.520000e+000  2.730000e+001  2.370000e+001
      vertex -1.048000e+001  2.730000e+001  1.970000e+001
    endloop
  endfacet
  facet normal  0.000000e+000  1.000000e+000  0.000000e+000
    outer loop
      vertex -1.048000e+001  2.730000e+001  1.970000e+001
      vertex  3.520000e+000  2.730000e+001  2.370000e+001
      vertex  3.520000e+000  2.730000e+001  1.970000e+001
    endloop
  endfacet
  facet normal  1.000000e+000  0.000000e+000  0.000000e+000
    outer loop
      vertex  3.520000e+000  2.100000e+001  2.370000e+001
      vertex  3.520000e+000  2.100000e+001  1.970000e+001
      vertex  3.520000e+000  2.730000e+001  2.370000e+001
    endloop
  endfacet
  facet normal  1.000000e+000  0.000000e+000  0.000000e+000
    outer loop
      vertex  3.520000e+000  2.730000e+001  2.370000e+001
      vertex  3.520000e+000  2.100000e+001  1.970000e+001
      vertex  3.520000e+000  2.730000e+001  1.970000e+001
    endloop
  endfacet
  facet normal  0.000000e+000  1.000000e+000  0.000000e+000
    outer loop
      vertex  3.520000e+000  2.100000e+001  2.370000e+001
      vertex  1.052000e+001  2.100000e+001  2.370000e+001
      vertex  3.520000e+000  2.100000e+001  1.970000e+001
    endloop
  endfacet
  facet normal  0.000000e+000  1.000000e+000  0.000000e+000
    outer loop
      vertex  3.520000e+000  2.100000e+001  1.970000e+001
      vertex  1.052000e+001  2.100000e+001  2.370000e+001
      vertex  1.052000e+001  2.100000e+001  1.970000e+001
    endloop
  endfacet
  facet normal  1.000000e+000  0.000000e+000  0.000000e+000
    outer loop
      vertex  1.052000e+001  7.000000e+000  2.370000e+001
      vertex  1.052000e+001  7.000000e+000  1.970000e+001
      vertex  1.052000e+001  2.100000e+001  2.370000e+001
    endloop
  endfacet
  facet normal  1.000000e+000  0.000000e+000  0.000000e+000
    outer loop
      vertex  1.052000e+001  2.100000e+001  2.370000e+001
      vertex  1.052000e+001  7.000000e+000  1.970000e+001
      vertex  1.052000e+001  2.100000e+001  1.970000e+001
    endloop
  endfacet
  facet normal  0.000000e+000  1.000000e+000  0.000000e+000
    outer loop
      vertex  1.052000e+001  7.000000e+000  2.370000e+001
      vertex  1.752000e+001  7.000000e+000  2.370000e+001
      vertex  1.052000e+001  7.000000e+000  1.970000e+001
    endloop
  endfacet
  facet normal  0.000000e+000  1.000000e+000  0.000000e+000
    outer loop
      vertex  1.052000e+001  7.000000e+000  1.970000e+001
      vertex  1.752000e+001  7.000000e+000  2.370000e+001
      vertex  1.752000e+001  7.000000e+000  1.970000e+001
    endloop
  endfacet
  facet normal -1.000000e+000  0.000000e+000  0.000000e+000
    outer loop
      vertex  1.752000e+001  2.100000e+001  2.370000e+001
      vertex  1.752000e+001  2.100000e+001  1.970000e+001
      vertex  1.752000e+001  7.000000e+000  2.370000e+001
    endloop
  endfacet
  facet normal -1.000000e+000  0.000000e+000  0.000000e+000
    outer loop
      vertex  1.752000e+001  7.000000e+000  2.370000e+001
      vertex  1.752000e+001  2.100000e+001  1.970000e+001
      vertex  1.752000e+001  7.000000e+000  1.970000e+001
    endloop
  endfacet
  facet normal  0.000000e+000  1.000000e+000  0.000000e+000
    outer loop
      vertex  1.752000e+001  2.100000e+001  2.370000e+001
      vertex  2.452000e+001  2.100000e+001  2.370000e+001
      vertex  1.752000e+001  2.100000e+001  1.970000e+001
    endloop
  endfacet
  facet normal  0.000000e+000  1.000000e+000  0.000000e+000
    outer loop
      vertex  1.752000e+001  2.100000e+001  1.970000e+001
      vertex  2.452000e+001  2.100000e+001  2.370000e+001
      vertex  2.452000e+001  2.100000e+001  1.970000e+001
    endloop
  endfacet
  facet normal  1.000000e+000  0.000000e+000  0.000000e+000
    outer loop
      vertex  2.452000e+001 -1.776357e-015  2.370000e+001
      vertex  2.452000e+001 -1.776357e-015  1.970000e+001
      vertex  2.452000e+001  2.100000e+001  2.370000e+001
    endloop
  endfacet
  facet normal  1.000000e+000  0.000000e+000  0.000000e+000
    outer loop
      vertex  2.452000e+001  2.100000e+001  2.370000e+001
      vertex  2.452000e+001 -1.776357e-015  1.970000e+001
      vertex  2.452000e+001  2.100000e+001  1.970000e+001
    endloop
  endfacet
  facet normal -2.537653e-016 -1.000000e+000  4.440892e-016
    outer loop
      vertex  1.752000e+001  0.000000e+000  2.370000e+001
      vertex  1.752000e+001 -1.776357e-015  1.970000e+001
      vertex  2.452000e+001 -1.776357e-015  2.370000e+001
    endloop
  endfacet
  facet normal  0.000000e+000 -1.000000e+000  -0.000000e+000
    outer loop
      vertex  2.452000e+001 -1.776357e-015  2.370000e+001
      vertex  1.752000e+001 -1.776357e-015  1.970000e+001
      vertex  2.452000e+001 -1.776357e-015  1.970000e+001
    endloop
  endfacet
  facet normal  1.000000e+000  -0.000000e+000  0.000000e+000
    outer loop
      vertex  1.752000e+001  0.000000e+000  2.370000e+001
      vertex  1.752000e+001 -7.000000e+000  2.370000e+001
      vertex  1.752000e+001 -1.776357e-015  1.970000e+001
    endloop
  endfacet
  facet normal  1.000000e+000  0.000000e+000  0.000000e+000
    outer loop
      vertex  1.752000e+001 -1.776357e-015  1.970000e+001
      vertex  1.752000e+001 -7.000000e+000  2.370000e+001
      vertex  1.752000e+001 -7.000000e+000  1.970000e+001
    endloop
  endfacet
  facet normal  0.000000e+000 -1.000000e+000  0.000000e+000
    outer loop
      vertex  1.052000e+001 -7.000000e+000  2.370000e+001
      vertex  1.052000e+001 -7.000000e+000  1.970000e+001
      vertex  1.752000e+001 -7.000000e+000  2.370000e+001
    endloop
  endfacet
  facet normal  0.000000e+000 -1.000000e+000  -0.000000e+000
    outer loop
      vertex  1.752000e+001 -7.000000e+000  2.370000e+001
      vertex  1.052000e+001 -7.000000e+000  1.970000e+001
      vertex  1.752000e+001 -7.000000e+000  1.970000e+001
    endloop
  endfacet
  facet normal  1.000000e+000  0.000000e+000  0.000000e+000
    outer loop
      vertex  1.052000e+001 -1.400000e+001  2.370000e+001
      vertex  1.052000e+001 -1.400000e+001  1.970000e+001
      vertex  1.052000e+001 -7.000000e+000  2.370000e+001
    endloop
  endfacet
  facet normal  1.000000e+000  0.000000e+000  0.000000e+000
    outer loop
      vertex  1.052000e+001 -7.000000e+000  2.370000e+001
      vertex  1.052000e+001 -1.400000e+001  1.970000e+001
      vertex  1.052000e+001 -7.000000e+000  1.970000e+001
    endloop
  endfacet
  facet normal  0.000000e+000 -1.000000e+000  0.000000e+000
    outer loop
      vertex  4.220000e+000 -1.400000e+001  2.370000e+001
      vertex  4.220000e+000 -1.400000e+001  1.970000e+001
      vertex  1.052000e+001 -1.400000e+001  2.370000e+001
    endloop
  endfacet
  facet normal  0.000000e+000 -1.000000e+000  -0.000000e+000
    outer loop
      vertex  1.052000e+001 -1.400000e+001  2.370000e+001
      vertex  4.220000e+000 -1.400000e+001  1.970000e+001
      vertex  1.052000e+001 -1.400000e+001  1.970000e+001
    endloop
  endfacet
  facet normal  1.000000e+000  0.000000e+000  0.000000e+000
    outer loop
      vertex  4.220000e+000 -2.100000e+001  2.370000e+001
      vertex  4.220000e+000 -2.100000e+001  1.970000e+001
      vertex  4.220000e+000 -1.400000e+001  2.370000e+001
    endloop
  endfacet
  facet normal  1.000000e+000  0.000000e+000  0.000000e+000
    outer loop
      vertex  4.220000e+000 -1.400000e+001  2.370000e+001
      vertex  4.220000e+000 -2.100000e+001  1.970000e+001
      vertex  4.220000e+000 -1.400000e+001  1.970000e+001
    endloop
  endfacet
  facet normal  0.000000e+000  1.000000e+000  -0.000000e+000
    outer loop
      vertex  1.052000e+001 -2.100000e+001  2.370000e+001
      vertex  1.052000e+001 -2.100000e+001  1.970000e+001
      vertex  4.220000e+000 -2.100000e+001  2.370000e+001
    endloop
  endfacet
  facet normal  0.000000e+000  1.000000e+000  0.000000e+000
    outer loop
      vertex  4.220000e+000 -2.100000e+001  2.370000e+001
      vertex  1.052000e+001 -2.100000e+001  1.970000e+001
      vertex  4.220000e+000 -2.100000e+001  1.970000e+001
    endloop
  endfacet
  facet normal  1.000000e+000  0.000000e+000  0.000000e+000
    outer loop
      vertex  1.052000e+001 -2.800000e+001  2.370000e+001
      vertex  1.052000e+001 -2.800000e+001  1.970000e+001
      vertex  1.052000e+001 -2.100000e+001  2.370000e+001
    endloop
  endfacet
  facet normal  1.000000e+000  0.000000e+000  0.000000e+000
    outer loop
      vertex  1.052000e+001 -2.100000e+001  2.370000e+001
      vertex  1.052000e+001 -2.800000e+001  1.970000e+001
      vertex  1.052000e+001 -2.100000e+001  1.970000e+001
    endloop
  endfacet
  facet normal  0.000000e+000 -1.000000e+000  0.000000e+000
    outer loop
      vertex  3.520000e+000 -2.800000e+001  2.370000e+001
      vertex  3.520000e+000 -2.800000e+001  1.970000e+001
      vertex  1.052000e+001 -2.800000e+001  2.370000e+001
    endloop
  endfacet
  facet normal  0.000000e+000 -1.000000e+000  -0.000000e+000
    outer loop
      vertex  1.052000e+001 -2.800000e+001  2.370000e+001
      vertex  3.520000e+000 -2.800000e+001  1.970000e+001
      vertex  1.052000e+001 -2.800000e+001  1.970000e+001
    endloop
  endfacet
  facet normal -1.000000e+000  -0.000000e+000  0.000000e+000
    outer loop
      vertex  3.520000e+000 -2.800000e+001  2.370000e+001
      vertex  3.520000e+000 -2.170000e+001  2.370000e+001
      vertex  3.520000e+000 -2.800000e+001  1.970000e+001
    endloop
  endfacet
  facet normal -1.000000e+000  0.000000e+000  0.000000e+000
    outer loop
      vertex  3.520000e+000 -2.800000e+001  1.970000e+001
      vertex  3.520000e+000 -2.170000e+001  2.370000e+001
      vertex  3.520000e+000 -2.170000e+001  1.970000e+001
    endloop
  endfacet
  facet normal  0.000000e+000 -1.000000e+000  0.000000e+000
    outer loop
      vertex -3.480000e+000 -2.170000e+001  2.370000e+001
      vertex -3.480000e+000 -2.170000e+001  1.970000e+001
      vertex  3.520000e+000 -2.170000e+001  2.370000e+001
    endloop
  endfacet
  facet normal  0.000000e+000 -1.000000e+000  -0.000000e+000
    outer loop
      vertex  3.520000e+000 -2.170000e+001  2.370000e+001
      vertex -3.480000e+000 -2.170000e+001  1.970000e+001
      vertex  3.520000e+000 -2.170000e+001  1.970000e+001
    endloop
  endfacet
  facet normal -1.000000e+000  0.000000e+000  0.000000e+000
    outer loop
      vertex -3.480000e+000 -1.400000e+001  2.370000e+001
      vertex -3.480000e+000 -1.400000e+001  1.970000e+001
      vertex -3.480000e+000 -2.170000e+001  2.370000e+001
    endloop
  endfacet
  facet normal -1.000000e+000  0.000000e+000  0.000000e+000
    outer loop
      vertex -3.480000e+000 -2.170000e+001  2.370000e+001
      vertex -3.480000e+000 -1.400000e+001  1.970000e+001
      vertex -3.480000e+000 -2.170000e+001  1.970000e+001
    endloop
  endfacet
  facet normal  0.000000e+000 -1.000000e+000  0.000000e+000
    outer loop
      vertex -1.370000e+001 -1.400000e+001  2.370000e+001
      vertex -1.370000e+001 -1.400000e+001  1.970000e+001
      vertex -3.480000e+000 -1.400000e+001  2.370000e+001
    endloop
  endfacet
  facet normal  0.000000e+000 -1.000000e+000  -0.000000e+000
    outer loop
      vertex -3.480000e+000 -1.400000e+001  2.370000e+001
      vertex -1.370000e+001 -1.400000e+001  1.970000e+001
      vertex -3.480000e+000 -1.400000e+001  1.970000e+001
    endloop
  endfacet
  facet normal  0.000000e+000 -1.000000e+000  0.000000e+000
    outer loop
      vertex -2.392000e+001 -1.400000e+001  2.370000e+001
      vertex -2.392000e+001 -1.400000e+001  1.970000e+001
      vertex -1.370000e+001 -1.400000e+001  2.370000e+001
    endloop
  endfacet
  facet normal  0.000000e+000 -1.000000e+000  -0.000000e+000
    outer loop
      vertex -1.370000e+001 -1.400000e+001  2.370000e+001
      vertex -2.392000e+001 -1.400000e+001  1.970000e+001
      vertex -1.370000e+001 -1.400000e+001  1.970000e+001
    endloop
  endfacet
  facet normal  1.000000e+000  -0.000000e+000  0.000000e+000
    outer loop
      vertex -2.392000e+001 -1.400000e+001  2.370000e+001
      vertex -2.392000e+001 -2.170000e+001  2.370000e+001
      vertex -2.392000e+001 -1.400000e+001  1.970000e+001
    endloop
  endfacet
  facet normal  1.000000e+000  0.000000e+000  0.000000e+000
    outer loop
      vertex -2.392000e+001 -1.400000e+001  1.970000e+001
      vertex -2.392000e+001 -2.170000e+001  2.370000e+001
      vertex -2.392000e+001 -2.170000e+001  1.970000e+001
    endloop
  endfacet
  facet normal  0.000000e+000 -1.000000e+000  0.000000e+000
    outer loop
      vertex -3.092000e+001 -2.170000e+001  2.370000e+001
      vertex -3.092000e+001 -2.170000e+001  1.970000e+001
      vertex -2.392000e+001 -2.170000e+001  2.370000e+001
    endloop
  endfacet
  facet normal  0.000000e+000 -1.000000e+000  -0.000000e+000
    outer loop
      vertex -2.392000e+001 -2.170000e+001  2.370000e+001
      vertex -3.092000e+001 -2.170000e+001  1.970000e+001
      vertex -2.392000e+001 -2.170000e+001  1.970000e+001
    endloop
  endfacet
  facet normal  1.000000e+000  0.000000e+000  0.000000e+000
    outer loop
      vertex -3.092000e+001 -2.800000e+001  2.370000e+001
      vertex -3.092000e+001 -2.800000e+001  1.970000e+001
      vertex -3.092000e+001 -2.170000e+001  2.370000e+001
    endloop
  endfacet
  facet normal  1.000000e+000  0.000000e+000  0.000000e+000
    outer loop
      vertex -3.092000e+001 -2.170000e+001  2.370000e+001
      vertex -3.092000e+001 -2.800000e+001  1.970000e+001
      vertex -3.092000e+001 -2.170000e+001  1.970000e+001
    endloop
  endfacet
  facet normal  0.000000e+000 -1.000000e+000  0.000000e+000
    outer loop
      vertex -3.792000e+001 -2.800000e+001  2.370000e+001
      vertex -3.792000e+001 -2.800000e+001  1.970000e+001
      vertex -3.092000e+001 -2.800000e+001  2.370000e+001
    endloop
  endfacet
  facet normal  0.000000e+000 -1.000000e+000  -0.000000e+000
    outer loop
      vertex -3.092000e+001 -2.800000e+001  2.370000e+001
      vertex -3.792000e+001 -2.800000e+001  1.970000e+001
      vertex -3.092000e+001 -2.800000e+001  1.970000e+001
    endloop
  endfacet
  facet normal -1.000000e+000  -0.000000e+000  0.000000e+000
    outer loop
      vertex -3.792000e+001 -2.800000e+001  2.370000e+001
      vertex -3.792000e+001 -2.100000e+001  2.370000e+001
      vertex -3.792000e+001 -2.800000e+001  1.970000e+001
    endloop
  endfacet
  facet normal -1.000000e+000  0.000000e+000  0.000000e+000
    outer loop
      vertex -3.792000e+001 -2.800000e+001  1.970000e+001
      vertex -3.792000e+001 -2.100000e+001  2.370000e+001
      vertex -3.792000e+001 -2.100000e+001  1.970000e+001
    endloop
  endfacet
  facet normal  0.000000e+000  1.000000e+000  -0.000000e+000
    outer loop
      vertex -3.162000e+001 -2.100000e+001  2.370000e+001
      vertex -3.162000e+001 -2.100000e+001  1.970000e+001
      vertex -3.792000e+001 -2.100000e+001  2.370000e+001
    endloop
  endfacet
  facet normal  0.000000e+000  1.000000e+000  0.000000e+000
    outer loop
      vertex -3.792000e+001 -2.100000e+001  2.370000e+001
      vertex -3.162000e+001 -2.100000e+001  1.970000e+001
      vertex -3.792000e+001 -2.100000e+001  1.970000e+001
    endloop
  endfacet
  facet normal -1.000000e+000  -0.000000e+000  0.000000e+000
    outer loop
      vertex -3.162000e+001 -2.100000e+001  2.370000e+001
      vertex -3.162000e+001 -1.400000e+001  2.370000e+001
      vertex -3.162000e+001 -2.100000e+001  1.970000e+001
    endloop
  endfacet
  facet normal -1.000000e+000  0.000000e+000  0.000000e+000
    outer loop
      vertex -3.162000e+001 -2.100000e+001  1.970000e+001
      vertex -3.162000e+001 -1.400000e+001  2.370000e+001
      vertex -3.162000e+001 -1.400000e+001  1.970000e+001
    endloop
  endfacet
  facet normal  0.000000e+000 -1.000000e+000  0.000000e+000
    outer loop
      vertex -3.792000e+001 -1.400000e+001  2.370000e+001
      vertex -3.792000e+001 -1.400000e+001  1.970000e+001
      vertex -3.162000e+001 -1.400000e+001  2.370000e+001
    endloop
  endfacet
  facet normal  0.000000e+000 -1.000000e+000  -0.000000e+000
    outer loop
      vertex -3.162000e+001 -1.400000e+001  2.370000e+001
      vertex -3.792000e+001 -1.400000e+001  1.970000e+001
      vertex -3.162000e+001 -1.400000e+001  1.970000e+001
    endloop
  endfacet
  facet normal -1.000000e+000  -0.000000e+000  0.000000e+000
    outer loop
      vertex -3.792000e+001 -1.400000e+001  2.370000e+001
      vertex -3.792000e+001 -7.000000e+000  2.370000e+001
      vertex -3.792000e+001 -1.400000e+001  1.970000e+001
    endloop
  endfacet
  facet normal -1.000000e+000  0.000000e+000  0.000000e+000
    outer loop
      vertex -3.792000e+001 -1.400000e+001  1.970000e+001
      vertex -3.792000e+001 -7.000000e+000  2.370000e+001
      vertex -3.792000e+001 -7.000000e+000  1.970000e+001
    endloop
  endfacet
  facet normal  0.000000e+000 -1.000000e+000  0.000000e+000
    outer loop
      vertex -4.492000e+001 -7.000000e+000  2.370000e+001
      vertex -4.492000e+001 -7.000000e+000  1.970000e+001
      vertex -3.792000e+001 -7.000000e+000  2.370000e+001
    endloop
  endfacet
  facet normal  0.000000e+000 -1.000000e+000  -0.000000e+000
    outer loop
      vertex -3.792000e+001 -7.000000e+000  2.370000e+001
      vertex -4.492000e+001 -7.000000e+000  1.970000e+001
      vertex -3.792000e+001 -7.000000e+000  1.970000e+001
    endloop
  endfacet
  facet normal -1.000000e+000  0.000000e+000  0.000000e+000
    outer loop
      vertex -4.492000e+001 -1.776357e-015  2.370000e+001
      vertex -4.492000e+001 -1.776357e-015  1.970000e+001
      vertex -4.492000e+001 -7.000000e+000  2.370000e+001
    endloop
  endfacet
  facet normal -1.000000e+000  0.000000e+000  0.000000e+000
    outer loop
      vertex -4.492000e+001 -7.000000e+000  2.370000e+001
      vertex -4.492000e+001 -1.776357e-015  1.970000e+001
      vertex -4.492000e+001 -7.000000e+000  1.970000e+001
    endloop
  endfacet
  facet normal -2.537653e-016 -1.000000e+000  0.000000e+000
    outer loop
      vertex -5.192000e+001  0.000000e+000  2.370000e+001
      vertex -5.192000e+001  0.000000e+000  1.970000e+001
      vertex -4.492000e+001 -1.776357e-015  2.370000e+001
    endloop
  endfacet
  facet normal -2.537653e-016 -1.000000e+000  -0.000000e+000
    outer loop
      vertex -4.492000e+001 -1.776357e-015  2.370000e+001
      vertex -5.192000e+001  0.000000e+000  1.970000e+001
      vertex -4.492000e+001 -1.776357e-015  1.970000e+001
    endloop
  endfacet
  facet normal -1.000000e+000  -0.000000e+000  0.000000e+000
    outer loop
      vertex -5.192000e+001  0.000000e+000  2.370000e+001
      vertex -5.192000e+001  2.100000e+001  2.370000e+001
      vertex -5.192000e+001  0.000000e+000  1.970000e+001
    endloop
  endfacet
  facet normal -1.000000e+000  0.000000e+000  0.000000e+000
    outer loop
      vertex -5.192000e+001  0.000000e+000  1.970000e+001
      vertex -5.192000e+001  2.100000e+001  2.370000e+001
      vertex -5.192000e+001  2.100000e+001  1.970000e+001
    endloop
  endfacet
  facet normal  0.000000e+000  1.000000e+000  0.000000e+000
    outer loop
      vertex -3.120000e+001 -7.000000e+000  2.370000e+001
      vertex -2.420000e+001 -7.000000e+000  2.370000e+001
      vertex -3.120000e+001 -7.000000e+000  1.970000e+001
    endloop
  endfacet
  facet normal  0.000000e+000  1.000000e+000  0.000000e+000
    outer loop
      vertex -3.120000e+001 -7.000000e+000  1.970000e+001
      vertex -2.420000e+001 -7.000000e+000  2.370000e+001
      vertex -2.420000e+001 -7.000000e+000  1.970000e+001
    endloop
  endfacet
  facet normal -1.000000e+000  0.000000e+000  0.000000e+000
    outer loop
      vertex -2.420000e+001  0.000000e+000  2.370000e+001
      vertex -2.420000e+001  0.000000e+000  1.970000e+001
      vertex -2.420000e+001 -7.000000e+000  2.370000e+001
    endloop
  endfacet
  facet normal -1.000000e+000  0.000000e+000  0.000000e+000
    outer loop
      vertex -2.420000e+001 -7.000000e+000  2.370000e+001
      vertex -2.420000e+001  0.000000e+000  1.970000e+001
      vertex -2.420000e+001 -7.000000e+000  1.970000e+001
    endloop
  endfacet
  facet normal  2.537653e-016 -1.000000e+000 -4.440892e-016
    outer loop
      vertex -3.120000e+001 -1.776357e-015  2.370000e+001
      vertex -3.120000e+001  0.000000e+000  1.970000e+001
      vertex -2.420000e+001  0.000000e+000  2.370000e+001
    endloop
  endfacet
  facet normal  0.000000e+000 -1.000000e+000  -0.000000e+000
    outer loop
      vertex -2.420000e+001  0.000000e+000  2.370000e+001
      vertex -3.120000e+001  0.000000e+000  1.970000e+001
      vertex -2.420000e+001  0.000000e+000  1.970000e+001
    endloop
  endfacet
  facet normal  1.000000e+000  0.000000e+000  0.000000e+000
    outer loop
      vertex -3.120000e+001 -7.000000e+000  2.370000e+001
      vertex -3.120000e+001 -7.000000e+000  1.970000e+001
      vertex -3.120000e+001 -1.776357e-015  2.370000e+001
    endloop
  endfacet
  facet normal  1.000000e+000  0.000000e+000  0.000000e+000
    outer loop
      vertex -3.120000e+001 -1.776357e-015  2.370000e+001
      vertex -3.120000e+001 -7.000000e+000  1.970000e+001
      vertex -3.120000e+001  0.000000e+000  1.970000e+001
    endloop
  endfacet
  facet normal -1.000000e+000  -0.000000e+000  0.000000e+000
    outer loop
      vertex  3.800000e+000 -7.000000e+000  2.370000e+001
      vertex  3.800000e+000  0.000000e+000  2.370000e+001
      vertex  3.800000e+000 -7.000000e+000  1.970000e+001
    endloop
  endfacet
  facet normal -1.000000e+000  0.000000e+000  0.000000e+000
    outer loop
      vertex  3.800000e+000 -7.000000e+000  1.970000e+001
      vertex  3.800000e+000  0.000000e+000  2.370000e+001
      vertex  3.800000e+000  0.000000e+000  1.970000e+001
    endloop
  endfacet
  facet normal  2.537653e-016 -1.000000e+000 -4.440892e-016
    outer loop
      vertex -3.200000e+000 -1.776357e-015  2.370000e+001
      vertex -3.200000e+000  0.000000e+000  1.970000e+001
      vertex  3.800000e+000  0.000000e+000  2.370000e+001
    endloop
  endfacet
  facet normal  0.000000e+000 -1.000000e+000  -0.000000e+000
    outer loop
      vertex  3.800000e+000  0.000000e+000  2.370000e+001
      vertex -3.200000e+000  0.000000e+000  1.970000e+001
      vertex  3.800000e+000  0.000000e+000  1.970000e+001
    endloop
  endfacet
  facet normal  1.000000e+000  -0.000000e+000  0.000000e+000
    outer loop
      vertex -3.200000e+000 -1.776357e-015  2.370000e+001
      vertex -3.200000e+000 -7.000000e+000  2.370000e+001
      vertex -3.200000e+000  0.000000e+000  1.970000e+001
    endloop
  endfacet
  facet normal  1.000000e+000  0.000000e+000  0.000000e+000
    outer loop
      vertex -3.200000e+000  0.000000e+000  1.970000e+001
      vertex -3.200000e+000 -7.000000e+000  2.370000e+001
      vertex -3.200000e+000 -7.000000e+000  1.970000e+001
    endloop
  endfacet
  facet normal  0.000000e+000  1.000000e+000  0.000000e+000
    outer loop
      vertex -3.200000e+000 -7.000000e+000  2.370000e+001
      vertex  3.800000e+000 -7.000000e+000  2.370000e+001
      vertex -3.200000e+000 -7.000000e+000  1.970000e+001
    endloop
  endfacet
  facet normal  0.000000e+000  1.000000e+000  0.000000e+000
    outer loop
      vertex -3.200000e+000 -7.000000e+000  1.970000e+001
      vertex  3.800000e+000 -7.000000e+000  2.370000e+001
      vertex  3.800000e+000 -7.000000e+000  1.970000e+001
    endloop
  endfacet
  facet normal  0.000000e+000  0.000000e+000 -1.000000e+000
    outer loop
      vertex  4.220000e+000 -2.100000e+001  1.970000e+001
      vertex  3.520000e+000 -2.170000e+001  1.970000e+001
      vertex  4.220000e+000 -1.400000e+001  1.970000e+001
    endloop
  endfacet
  facet normal  0.000000e+000  0.000000e+000 -1.000000e+000
    outer loop
      vertex -3.162000e+001 -1.400000e+001  1.970000e+001
      vertex -3.792000e+001 -1.400000e+001  1.970000e+001
      vertex -3.120000e+001 -7.000000e+000  1.970000e+001
    endloop
  endfacet
  facet normal  0.000000e+000  0.000000e+000 -1.000000e+000
    outer loop
      vertex -1.048000e+001  2.730000e+001  1.970000e+001
      vertex  2.820000e+000  2.030000e+001  1.970000e+001
      vertex -1.048000e+001  2.030000e+001  1.970000e+001
    endloop
  endfacet
  facet normal  0.000000e+000  0.000000e+000 -1.000000e+000
    outer loop
      vertex -3.792000e+001 -7.000000e+000  1.970000e+001
      vertex -4.492000e+001 -7.000000e+000  1.970000e+001
      vertex -4.492000e+001 -1.776357e-015  1.970000e+001
    endloop
  endfacet
  facet normal  0.000000e+000  0.000000e+000 -1.000000e+000
    outer loop
      vertex -3.792000e+001 -7.000000e+000  1.970000e+001
      vertex -4.492000e+001 -1.776357e-015  1.970000e+001
      vertex -3.120000e+001  0.000000e+000  1.970000e+001
    endloop
  endfacet
  facet normal  0.000000e+000  -0.000000e+000 -1.000000e+000
    outer loop
      vertex -3.792000e+001 -7.000000e+000  1.970000e+001
      vertex -3.120000e+001  0.000000e+000  1.970000e+001
      vertex -3.120000e+001 -7.000000e+000  1.970000e+001
    endloop
  endfacet
  facet normal  -0.000000e+000  0.000000e+000 -1.000000e+000
    outer loop
      vertex -3.792000e+001 -7.000000e+000  1.970000e+001
      vertex -3.120000e+001 -7.000000e+000  1.970000e+001
      vertex -3.792000e+001 -1.400000e+001  1.970000e+001
    endloop
  endfacet
  facet normal  0.000000e+000  0.000000e+000 -1.000000e+000
    outer loop
      vertex  1.752000e+001 -1.776357e-015  1.970000e+001
      vertex  1.752000e+001 -7.000000e+000  1.970000e+001
      vertex  1.052000e+001 -7.000000e+000  1.970000e+001
    endloop
  endfacet
  facet normal  0.000000e+000  0.000000e+000 -1.000000e+000
    outer loop
      vertex  1.752000e+001 -1.776357e-015  1.970000e+001
      vertex  1.052000e+001 -7.000000e+000  1.970000e+001
      vertex  3.800000e+000 -7.000000e+000  1.970000e+001
    endloop
  endfacet
  facet normal  0.000000e+000  0.000000e+000 -1.000000e+000
    outer loop
      vertex  1.752000e+001 -1.776357e-015  1.970000e+001
      vertex  3.800000e+000 -7.000000e+000  1.970000e+001
      vertex  3.800000e+000  0.000000e+000  1.970000e+001
    endloop
  endfacet
  facet normal  -0.000000e+000  -0.000000e+000 -1.000000e+000
    outer loop
      vertex  1.052000e+001  7.000000e+000  1.970000e+001
      vertex  1.752000e+001  7.000000e+000  1.970000e+001
      vertex  2.452000e+001 -1.776357e-015  1.970000e+001
    endloop
  endfacet
  facet normal  0.000000e+000  0.000000e+000 -1.000000e+000
    outer loop
      vertex  1.052000e+001  7.000000e+000  1.970000e+001
      vertex  2.452000e+001 -1.776357e-015  1.970000e+001
      vertex  1.752000e+001 -1.776357e-015  1.970000e+001
    endloop
  endfacet
  facet normal  0.000000e+000  0.000000e+000 -1.000000e+000
    outer loop
      vertex  1.052000e+001  7.000000e+000  1.970000e+001
      vertex  1.752000e+001 -1.776357e-015  1.970000e+001
      vertex  3.800000e+000  0.000000e+000  1.970000e+001
    endloop
  endfacet
  facet normal  0.000000e+000  0.000000e+000 -1.000000e+000
    outer loop
      vertex  1.052000e+001  7.000000e+000  1.970000e+001
      vertex  3.800000e+000  0.000000e+000  1.970000e+001
      vertex -3.200000e+000  0.000000e+000  1.970000e+001
    endloop
  endfacet
  facet normal  0.000000e+000  0.000000e+000 -1.000000e+000
    outer loop
      vertex  1.052000e+001  7.000000e+000  1.970000e+001
      vertex -3.200000e+000  0.000000e+000  1.970000e+001
      vertex  2.820000e+000  1.400000e+001  1.970000e+001
    endloop
  endfacet
  facet normal  0.000000e+000  0.000000e+000 -1.000000e+000
    outer loop
      vertex  1.052000e+001  7.000000e+000  1.970000e+001
      vertex  2.820000e+000  1.400000e+001  1.970000e+001
      vertex  2.820000e+000  2.030000e+001  1.970000e+001
    endloop
  endfacet
  facet normal  0.000000e+000  0.000000e+000 -9.999999e-001
    outer loop
      vertex  1.052000e+001  7.000000e+000  1.970000e+001
      vertex  2.820000e+000  2.030000e+001  1.970000e+001
      vertex  1.052000e+001  2.100000e+001  1.970000e+001
    endloop
  endfacet
  facet normal  -0.000000e+000  -0.000000e+000 -1.000000e+000
    outer loop
      vertex -4.492000e+001  7.000000e+000  1.970000e+001
      vertex -3.792000e+001  7.000000e+000  1.970000e+001
      vertex -3.120000e+001  0.000000e+000  1.970000e+001
    endloop
  endfacet
  facet normal  -0.000000e+000  0.000000e+000 -1.000000e+000
    outer loop
      vertex -4.492000e+001  7.000000e+000  1.970000e+001
      vertex -3.120000e+001  0.000000e+000  1.970000e+001
      vertex -4.492000e+001 -1.776357e-015  1.970000e+001
    endloop
  endfacet
  facet normal  0.000000e+000  0.000000e+000 -1.000000e+000
    outer loop
      vertex -4.492000e+001  7.000000e+000  1.970000e+001
      vertex -4.492000e+001 -1.776357e-015  1.970000e+001
      vertex -5.192000e+001  0.000000e+000  1.970000e+001
    endloop
  endfacet
  facet normal  0.000000e+000  0.000000e+000 -1.000000e+000
    outer loop
      vertex -4.492000e+001  7.000000e+000  1.970000e+001
      vertex -5.192000e+001  0.000000e+000  1.970000e+001
      vertex -5.192000e+001  2.100000e+001  1.970000e+001
    endloop
  endfacet
  facet normal  0.000000e+000  0.000000e+000 -1.000000e+000
    outer loop
      vertex -4.492000e+001  7.000000e+000  1.970000e+001
      vertex -5.192000e+001  2.100000e+001  1.970000e+001
      vertex -4.492000e+001  2.100000e+001  1.970000e+001
    endloop
  endfacet
  facet normal  -0.000000e+000  -0.000000e+000 -1.000000e+000
    outer loop
      vertex -3.200000e+000 -7.000000e+000  1.970000e+001
      vertex  3.800000e+000 -7.000000e+000  1.970000e+001
      vertex  4.220000e+000 -1.400000e+001  1.970000e+001
    endloop
  endfacet
  facet normal  -0.000000e+000  0.000000e+000 -1.000000e+000
    outer loop
      vertex -3.200000e+000 -7.000000e+000  1.970000e+001
      vertex  4.220000e+000 -1.400000e+001  1.970000e+001
      vertex  3.520000e+000 -2.170000e+001  1.970000e+001
    endloop
  endfacet
  facet normal  0.000000e+000  0.000000e+000 -1.000000e+000
    outer loop
      vertex -3.200000e+000 -7.000000e+000  1.970000e+001
      vertex  3.520000e+000 -2.170000e+001  1.970000e+001
      vertex -3.480000e+000 -2.170000e+001  1.970000e+001
    endloop
  endfacet
  facet normal  0.000000e+000  0.000000e+000 -1.000000e+000
    outer loop
      vertex -3.200000e+000 -7.000000e+000  1.970000e+001
      vertex -3.480000e+000 -2.170000e+001  1.970000e+001
      vertex -3.480000e+000 -1.400000e+001  1.970000e+001
    endloop
  endfacet
  facet normal  0.000000e+000  0.000000e+000 -1.000000e+000
    outer loop
      vertex -3.200000e+000 -7.000000e+000  1.970000e+001
      vertex -3.480000e+000 -1.400000e+001  1.970000e+001
      vertex -1.370000e+001 -1.400000e+001  1.970000e+001
    endloop
  endfacet
  facet normal  0.000000e+000  0.000000e+000 -1.000000e+000
    outer loop
      vertex -3.200000e+000 -7.000000e+000  1.970000e+001
      vertex -1.370000e+001 -1.400000e+001  1.970000e+001
      vertex -2.392000e+001 -1.400000e+001  1.970000e+001
    endloop
  endfacet
  facet normal  0.000000e+000  0.000000e+000 -1.000000e+000
    outer loop
      vertex -3.200000e+000 -7.000000e+000  1.970000e+001
      vertex -2.392000e+001 -1.400000e+001  1.970000e+001
      vertex -2.420000e+001 -7.000000e+000  1.970000e+001
    endloop
  endfacet
  facet normal  0.000000e+000  0.000000e+000 -1.000000e+000
    outer loop
      vertex -3.200000e+000 -7.000000e+000  1.970000e+001
      vertex -2.420000e+001 -7.000000e+000  1.970000e+001
      vertex -2.420000e+001  0.000000e+000  1.970000e+001
    endloop
  endfacet
  facet normal  0.000000e+000  0.000000e+000 -1.000000e+000
    outer loop
      vertex -3.200000e+000 -7.000000e+000  1.970000e+001
      vertex -2.420000e+001  0.000000e+000  1.970000e+001
      vertex -3.200000e+000  0.000000e+000  1.970000e+001
    endloop
  endfacet
  facet normal  -0.000000e+000  -0.000000e+000 -1.000000e+000
    outer loop
      vertex -3.792000e+001 -2.100000e+001  1.970000e+001
      vertex -3.162000e+001 -2.100000e+001  1.970000e+001
      vertex -3.092000e+001 -2.170000e+001  1.970000e+001
    endloop
  endfacet
  facet normal  -0.000000e+000  -0.000000e+000 -1.000000e+000
    outer loop
      vertex -3.792000e+001 -2.100000e+001  1.970000e+001
      vertex -3.092000e+001 -2.170000e+001  1.970000e+001
      vertex -3.092000e+001 -2.800000e+001  1.970000e+001
    endloop
  endfacet
  facet normal  0.000000e+000  0.000000e+000 -1.000000e+000
    outer loop
      vertex -3.792000e+001 -2.100000e+001  1.970000e+001
      vertex -3.092000e+001 -2.800000e+001  1.970000e+001
      vertex -3.792000e+001 -2.800000e+001  1.970000e+001
    endloop
  endfacet
  facet normal  0.000000e+000  0.000000e+000 -1.000000e+000
    outer loop
      vertex  1.052000e+001 -7.000000e+000  1.970000e+001
      vertex  1.052000e+001 -1.400000e+001  1.970000e+001
      vertex  3.800000e+000 -7.000000e+000  1.970000e+001
    endloop
  endfacet
  facet normal  0.000000e+000  0.000000e+000 -1.000000e+000
    outer loop
      vertex  3.800000e+000 -7.000000e+000  1.970000e+001
      vertex  1.052000e+001 -1.400000e+001  1.970000e+001
      vertex  4.220000e+000 -1.400000e+001  1.970000e+001
    endloop
  endfacet
  facet normal  -0.000000e+000  0.000000e+000 -1.000000e+000
    outer loop
      vertex -1.048000e+001  2.730000e+001  1.970000e+001
      vertex  3.520000e+000  2.730000e+001  1.970000e+001
      vertex  2.820000e+000  2.030000e+001  1.970000e+001
    endloop
  endfacet
  facet normal  0.000000e+000  0.000000e+000 -1.000000e+000
    outer loop
      vertex  2.820000e+000  2.030000e+001  1.970000e+001
      vertex  3.520000e+000  2.730000e+001  1.970000e+001
      vertex  3.520000e+000  2.100000e+001  1.970000e+001
    endloop
  endfacet
  facet normal  0.000000e+000  -0.000000e+000 -1.000000e+000
    outer loop
      vertex  2.820000e+000  2.030000e+001  1.970000e+001
      vertex  3.520000e+000  2.100000e+001  1.970000e+001
      vertex  1.052000e+001  2.100000e+001  1.970000e+001
    endloop
  endfacet
  facet normal  0.000000e+000  0.000000e+000 -1.000000e+000
    outer loop
      vertex -1.692000e+001  2.730000e+001  1.970000e+001
      vertex -1.692000e+001  2.030000e+001  1.970000e+001
      vertex -3.092000e+001  2.730000e+001  1.970000e+001
    endloop
  endfacet
  facet normal  0.000000e+000  0.000000e+000 -1.000000e+000
    outer loop
      vertex -3.092000e+001  2.730000e+001  1.970000e+001
      vertex -1.692000e+001  2.030000e+001  1.970000e+001
      vertex -3.022000e+001  2.030000e+001  1.970000e+001
    endloop
  endfacet
  facet normal  0.000000e+000  0.000000e+000 -1.000000e+000
    outer loop
      vertex -3.092000e+001  2.730000e+001  1.970000e+001
      vertex -3.022000e+001  2.030000e+001  1.970000e+001
      vertex -3.092000e+001  2.100000e+001  1.970000e+001
    endloop
  endfacet
  facet normal  0.000000e+000  0.000000e+000 -1.000000e+000
    outer loop
      vertex -3.120000e+001  0.000000e+000  1.970000e+001
      vertex -3.792000e+001  7.000000e+000  1.970000e+001
      vertex -2.420000e+001  0.000000e+000  1.970000e+001
    endloop
  endfacet
  facet normal  0.000000e+000  0.000000e+000 -1.000000e+000
    outer loop
      vertex -2.420000e+001  0.000000e+000  1.970000e+001
      vertex -3.792000e+001  7.000000e+000  1.970000e+001
      vertex -3.022000e+001  1.400000e+001  1.970000e+001
    endloop
  endfacet
  facet normal  0.000000e+000  0.000000e+000 -1.000000e+000
    outer loop
      vertex -2.420000e+001  0.000000e+000  1.970000e+001
      vertex -3.022000e+001  1.400000e+001  1.970000e+001
      vertex -3.200000e+000  0.000000e+000  1.970000e+001
    endloop
  endfacet
  facet normal  0.000000e+000  0.000000e+000 -9.999999e-001
    outer loop
      vertex -3.200000e+000  0.000000e+000  1.970000e+001
      vertex -3.022000e+001  1.400000e+001  1.970000e+001
      vertex -1.370000e+001  1.400000e+001  1.970000e+001
    endloop
  endfacet
  facet normal  0.000000e+000  0.000000e+000 -1.000000e+000
    outer loop
      vertex -3.200000e+000  0.000000e+000  1.970000e+001
      vertex -1.370000e+001  1.400000e+001  1.970000e+001
      vertex  2.820000e+000  1.400000e+001  1.970000e+001
    endloop
  endfacet
  facet normal  0.000000e+000  0.000000e+000 -1.000000e+000
    outer loop
      vertex -2.392000e+001 -1.400000e+001  1.970000e+001
      vertex -2.392000e+001 -2.170000e+001  1.970000e+001
      vertex -2.420000e+001 -7.000000e+000  1.970000e+001
    endloop
  endfacet
  facet normal  0.000000e+000  -0.000000e+000 -1.000000e+000
    outer loop
      vertex -2.420000e+001 -7.000000e+000  1.970000e+001
      vertex -2.392000e+001 -2.170000e+001  1.970000e+001
      vertex -3.092000e+001 -2.170000e+001  1.970000e+001
    endloop
  endfacet
  facet normal  0.000000e+000  0.000000e+000 -1.000000e+000
    outer loop
      vertex -2.420000e+001 -7.000000e+000  1.970000e+001
      vertex -3.092000e+001 -2.170000e+001  1.970000e+001
      vertex -3.120000e+001 -7.000000e+000  1.970000e+001
    endloop
  endfacet
  facet normal  0.000000e+000  -0.000000e+000 -1.000000e+000
    outer loop
      vertex -3.120000e+001 -7.000000e+000  1.970000e+001
      vertex -3.092000e+001 -2.170000e+001  1.970000e+001
      vertex -3.162000e+001 -2.100000e+001  1.970000e+001
    endloop
  endfacet
  facet normal  0.000000e+000  0.000000e+000 -1.000000e+000
    outer loop
      vertex -3.120000e+001 -7.000000e+000  1.970000e+001
      vertex -3.162000e+001 -2.100000e+001  1.970000e+001
      vertex -3.162000e+001 -1.400000e+001  1.970000e+001
    endloop
  endfacet
  facet normal  0.000000e+000  0.000000e+000 -9.999999e-001
    outer loop
      vertex -3.022000e+001  1.400000e+001  1.970000e+001
      vertex -3.792000e+001  7.000000e+000  1.970000e+001
      vertex -3.022000e+001  2.030000e+001  1.970000e+001
    endloop
  endfacet
  facet normal  -0.000000e+000  0.000000e+000 -9.999999e-001
    outer loop
      vertex -3.022000e+001  2.030000e+001  1.970000e+001
      vertex -3.792000e+001  7.000000e+000  1.970000e+001
      vertex -3.792000e+001  2.100000e+001  1.970000e+001
    endloop
  endfacet
  facet normal  0.000000e+000  0.000000e+000 -1.000000e+000
    outer loop
      vertex -3.022000e+001  2.030000e+001  1.970000e+001
      vertex -3.792000e+001  2.100000e+001  1.970000e+001
      vertex -3.092000e+001  2.100000e+001  1.970000e+001
    endloop
  endfacet
  facet normal  0.000000e+000  0.000000e+000 -9.999999e-001
    outer loop
      vertex  1.052000e+001 -2.800000e+001  1.970000e+001
      vertex  3.520000e+000 -2.800000e+001  1.970000e+001
      vertex  1.052000e+001 -2.100000e+001  1.970000e+001
    endloop
  endfacet
  facet normal  0.000000e+000  0.000000e+000 -1.000000e+000
    outer loop
      vertex  1.052000e+001 -2.100000e+001  1.970000e+001
      vertex  3.520000e+000 -2.800000e+001  1.970000e+001
      vertex  3.520000e+000 -2.170000e+001  1.970000e+001
    endloop
  endfacet
  facet normal  0.000000e+000  0.000000e+000 -1.000000e+000
    outer loop
      vertex  1.052000e+001 -2.100000e+001  1.970000e+001
      vertex  3.520000e+000 -2.170000e+001  1.970000e+001
      vertex  4.220000e+000 -2.100000e+001  1.970000e+001
    endloop
  endfacet
  facet normal  -0.000000e+000  0.000000e+000 -1.000000e+000
    outer loop
      vertex  1.752000e+001  2.100000e+001  1.970000e+001
      vertex  2.452000e+001  2.100000e+001  1.970000e+001
      vertex  1.752000e+001  7.000000e+000  1.970000e+001
    endloop
  endfacet
  facet normal  0.000000e+000  0.000000e+000 -1.000000e+000
    outer loop
      vertex  1.752000e+001  7.000000e+000  1.970000e+001
      vertex  2.452000e+001  2.100000e+001  1.970000e+001
      vertex  2.452000e+001 -1.776357e-015  1.970000e+001
    endloop
  endfacet
endsolid STL
